<?xml version="1.0" encoding="UTF-8" standalone="no"?>
<!-- Created with Inkscape (http://www.inkscape.org/) -->

<svg
   width="256"
   height="256"
   viewBox="0 0 67.733332 67.733333"
   version="1.1"
   id="svg1"
   xml:space="preserve"
   inkscape:export-filename="list.png"
   inkscape:export-xdpi="96"
   inkscape:export-ydpi="96"
   inkscape:version="1.3 (0e150ed6c4, 2023-07-21)"
   sodipodi:docname="icons.svg"
   xmlns:inkscape="http://www.inkscape.org/namespaces/inkscape"
   xmlns:sodipodi="http://sodipodi.sourceforge.net/DTD/sodipodi-0.dtd"
   xmlns="http://www.w3.org/2000/svg"
   xmlns:svg="http://www.w3.org/2000/svg"><sodipodi:namedview
     id="namedview1"
     pagecolor="#ffffff"
     bordercolor="#666666"
     borderopacity="1.0"
     inkscape:showpageshadow="2"
     inkscape:pageopacity="0.0"
     inkscape:pagecheckerboard="0"
     inkscape:deskcolor="#d1d1d1"
     inkscape:document-units="mm"
     inkscape:zoom="1.4142136"
     inkscape:cx="114.55129"
     inkscape:cy="121.97591"
     inkscape:window-width="1920"
     inkscape:window-height="1057"
     inkscape:window-x="1912"
     inkscape:window-y="-8"
     inkscape:window-maximized="1"
     inkscape:current-layer="layer1"
     inkscape:export-bgcolor="#ffffff00" /><defs
     id="defs1"><clipPath
       clipPathUnits="userSpaceOnUse"
       id="clipPath2"><rect
         style="display:inline;fill:#bcad9f;stroke:none;stroke-width:1.05833;stroke-linecap:round;stroke-linejoin:round;paint-order:stroke markers fill"
         id="rect3"
         width="67.73333"
         height="67.73333"
         x="1.7801921e-06"
         y="1.7801921e-06" /></clipPath></defs><g
     inkscape:label="Layer 1"
     inkscape:groupmode="layer"
     id="layer1"><path
       id="path12"
       style="display:none;fill:#bbc3d0;fill-opacity:1;fill-rule:evenodd;stroke-width:0.264583"
       inkscape:transform-center-y="-3.5796175"
       d="M 33.866667,14.306957 17.314705,35.78486 h 11.672171 v 18.900361 h 9.759581 V 35.78486 h 11.672172 z" /><path
       style="display:none;fill:#ffffff;fill-opacity:1;stroke-width:0.999997"
       d="m 43.111162,54.762333 c -0.01613,-0.0019 -0.08213,-0.0073 -0.146664,-0.01238 -0.933115,-0.07211 -1.826764,-0.459407 -2.656698,-1.151404 -0.974257,-0.812335 -1.549796,-1.781491 -1.70988,-2.879288 -0.034,-0.233134 -0.03864,-0.296012 -0.0434,-0.587119 -0.0057,-0.345622 0.0043,-0.518981 0.04863,-0.837609 0.06493,-0.46791 0.209197,-1.021336 0.39415,-1.512084 0.02245,-0.05957 0.04081,-0.111422 0.04081,-0.115232 0,-0.0037 -1.712188,-0.0069 -3.80486,-0.0069 -2.847481,0 -3.80486,0.0023 -3.80486,0.0095 0,0.0052 0.02471,0.08508 0.05489,0.177352 0.322606,0.985938 0.441406,1.90954 0.351095,2.729573 -0.139148,1.263477 -0.771875,2.317657 -1.898709,3.163418 -0.792192,0.594591 -1.47448,0.864627 -2.429475,0.961532 -0.140466,0.01426 -0.656931,0.01402 -0.800362,-3.57e-4 -0.405218,-0.04062 -0.731139,-0.105615 -1.075044,-0.214386 -0.503842,-0.15935 -0.951686,-0.388688 -1.375186,-0.704227 -0.995229,-0.741517 -1.56698,-1.600092 -1.777452,-2.669128 -0.02922,-0.148415 -0.05338,-0.31668 -0.07226,-0.50333 -0.01811,-0.17914 -0.02503,-0.66371 -0.01264,-0.888948 0.03139,-0.572796 0.138309,-1.254256 0.301683,-1.922756 0.01351,-0.05529 0.02393,-0.10083 0.02314,-0.101213 -7.91e-4,-3.73e-4 -0.08441,-0.02776 -0.185811,-0.06086 -0.884333,-0.2886 -1.31733,-0.655007 -1.407276,-1.190853 -0.01725,-0.102792 -0.01733,-0.310107 -1.8e-4,-0.42696 0.03681,-0.250673 0.119326,-0.513498 0.26081,-0.830771 0.07278,-0.163185 0.306147,-0.618021 1.08364,-2.111948 0.746682,-1.434728 1.400091,-2.723819 1.461586,-2.88352 0.04384,-0.113838 0.07628,-0.231452 0.09833,-0.356445 0.02416,-0.136925 0.02618,-0.349204 0.0042,-0.447564 -0.0077,-0.03458 -0.09168,-0.281594 -0.186589,-0.548941 -0.229424,-0.646211 -0.480803,-1.353036 -0.669139,-1.881476 -0.0846,-0.237385 -0.288217,-0.808744 -0.452474,-1.269684 C 22.5609,35.227451 22.408129,34.799404 22.385666,34.737179 22.34736,34.631076 22.159497,34.105963 21.832473,33.19093 21.659886,32.708015 20.906414,30.606105 20.67584,29.964341 20.583095,29.706215 20.433457,29.289482 20.343301,29.038268 20.090058,28.332614 19.81768,27.574587 19.709397,27.274121 19.679489,27.191156 19.611007,27.0007 19.557208,26.850894 19.359084,26.299252 19.29659,26.125387 19.149017,25.715302 19.066087,25.48483 18.928431,25.10204 18.843125,24.864655 18.669894,24.382596 18.575963,24.121528 18.4843,23.867346 c -0.03408,-0.09449 -0.181229,-0.503682 -0.327005,-0.909312 -0.145779,-0.405627 -0.281409,-0.78276 -0.3014,-0.838073 -0.02,-0.05532 -0.08033,-0.223031 -0.134084,-0.372708 -0.05376,-0.149676 -0.126029,-0.340128 -0.160613,-0.423228 -0.07415,-0.178161 -0.09841,-0.257655 -0.120288,-0.39404 -0.115464,-0.719955 -0.352346,-1.356888 -0.699733,-1.881576 -0.371079,-0.56047 -0.86462,-1.00251 -1.509099,-1.351624 -0.414925,-0.224764 -0.884115,-0.400203 -1.495445,-0.559175 -0.508872,-0.132329 -0.941066,-0.278101 -1.546248,-0.521527 -0.223719,-0.08999 -0.433209,-0.179103 -1.3493,-0.57398 -0.133674,-0.05762 -0.324125,-0.138651 -0.423229,-0.180072 -0.0991,-0.04143 -0.217898,-0.09367 -0.263992,-0.116126 -0.4774251,-0.232474 -0.7991414,-0.591646 -0.9041276,-1.009397 -0.061849,-0.2461 -0.057413,-0.467795 0.014937,-0.745886 0.073348,-0.281917 0.1904606,-0.491487 0.3819676,-0.683489 0.3007363,-0.30151 0.69109,-0.436784 1.163017,-0.403037 0.214026,0.0153 0.370552,0.05373 0.643223,0.157855 1.258304,0.480564 2.827752,1.086708 3.511533,1.356205 0.07837,0.03088 0.193386,0.0761 0.255612,0.100493 0.792754,0.310681 2.018394,0.80928 2.842326,1.156277 0.374878,0.157878 0.771301,0.568614 1.010614,1.047104 0.305264,0.61035 0.633897,1.496415 0.903243,2.435323 0.09005,0.313941 0.102664,0.354386 0.139172,0.446366 0.173671,0.437613 0.423078,0.666245 0.828697,0.75967 0.03918,0.0091 0.116495,0.02326 0.171807,0.03164 0.126753,0.0192 0.330731,0.01934 5.330156,0.0039 4.72428,-0.01455 25.032802,-0.0098 25.213483,0.0059 0.416348,0.0362 0.692926,0.103524 0.940256,0.228863 0.344252,0.174447 0.544176,0.437115 0.627203,0.824038 0.02286,0.106497 0.03234,0.421459 0.01707,0.567399 -0.0213,0.203854 -0.07961,0.484131 -0.146224,0.702948 -0.02824,0.09275 -0.0886,0.282558 -0.438234,1.37797 -0.08535,0.267345 -0.197837,0.619965 -0.250013,0.783599 -0.05218,0.163635 -0.178578,0.559625 -0.280893,0.879979 -0.102316,0.320355 -0.230475,0.722002 -0.284795,0.89255 -0.05432,0.170547 -0.167411,0.525054 -0.251315,0.787791 -0.157948,0.494589 -0.322114,1.008988 -0.536269,1.680339 -0.06837,0.214339 -0.194444,0.609385 -0.280162,0.877883 -0.243968,0.764191 -0.45886,1.43757 -0.562317,1.762054 -0.103454,0.324481 -0.31835,0.99786 -0.562317,1.76205 -0.08572,0.268499 -0.211792,0.663547 -0.280163,0.877886 -0.06837,0.214336 -0.183293,0.574498 -0.255382,0.800361 -0.639006,2.002056 -0.806169,2.527563 -1.10768,3.4822 -0.491537,1.556304 -0.529059,1.674113 -0.573887,1.801861 -0.157852,0.449825 -0.295283,0.699992 -0.492776,0.897006 -0.231826,0.231262 -0.508556,0.339649 -1.006167,0.394086 -0.06122,0.0067 -0.612065,0.01161 -1.810242,0.01618 -2.655225,0.01011 -10.788172,0.0096 -13.053018,-8.08e-4 -3.017638,-0.01386 -3.710766,-0.01391 -3.821621,-3.58e-4 -0.693105,0.08474 -1.051101,0.375496 -1.312127,1.065655 -0.113629,0.300441 -0.22229,0.53294 -0.46218,0.988927 -0.07638,0.145197 -0.175068,0.332782 -0.219294,0.416857 -0.09004,0.171184 -0.172822,0.334814 -0.172822,0.34163 0,0.0023 5.354712,0.0042 11.899358,0.0039 10.872046,-4.69e-4 11.907249,6.44e-4 11.990757,0.0129 0.576018,0.08461 0.969203,0.33825 1.168179,0.753568 0.143279,0.299058 0.187954,0.73518 0.112712,1.10037 -0.117259,0.569187 -0.507745,0.931637 -1.139217,1.057431 -0.214803,0.0428 -0.436206,0.05518 -0.766837,0.04294 -0.405503,-0.01502 -0.687224,-0.01998 -0.687214,-0.01211 4e-6,0.0042 0.02276,0.07928 0.05059,0.166868 0.437592,1.377397 0.514648,2.554945 0.234469,3.583224 -0.08646,0.317322 -0.232461,0.669994 -0.393597,0.95076 -0.359382,0.626193 -0.902825,1.176964 -1.61372,1.635484 -0.86559,0.558298 -1.720761,0.838199 -2.606412,0.853096 -0.10601,0.0017 -0.205959,0.0017 -0.222091,-1.05e-4 z M 27.376235,52.215024 c 0.346573,-0.04543 0.687268,-0.171855 0.976428,-0.362333 0.151515,-0.09981 0.274982,-0.20258 0.406982,-0.338768 0.759303,-0.783391 0.871846,-1.959589 0.274344,-2.867195 -0.119721,-0.181849 -0.320948,-0.403069 -0.48857,-0.537099 -0.793367,-0.634374 -1.887033,-0.693462 -2.723743,-0.147157 -0.142496,0.09305 -0.244304,0.175852 -0.369681,0.300708 -0.357681,0.356195 -0.57402,0.787075 -0.65877,1.312077 -0.02148,0.133032 -0.02139,0.537067 1.29e-4,0.67465 0.08181,0.522848 0.300456,0.959601 0.658798,1.315966 0.162778,0.16188 0.320681,0.280371 0.519039,0.389489 0.267582,0.147197 0.600326,0.246255 0.914841,0.272348 0.118575,0.0099 0.367544,0.0033 0.490203,-0.01264 z m 16.21263,0.0036 c 0.41676,-0.04532 0.832362,-0.215034 1.185808,-0.484236 0.106962,-0.08147 0.32719,-0.300043 0.40635,-0.403302 0.266407,-0.347514 0.421638,-0.71625 0.474533,-1.12721 0.01878,-0.145877 0.0188,-0.415539 5.8e-5,-0.560716 -0.06511,-0.504272 -0.287589,-0.966188 -0.641263,-1.331437 -0.158444,-0.163629 -0.288186,-0.26938 -0.463227,-0.377578 -0.26335,-0.162782 -0.540836,-0.265778 -0.856045,-0.317742 -0.150576,-0.02482 -0.517518,-0.02688 -0.671916,-0.0037 -0.531721,0.07964 -0.990504,0.313462 -1.353638,0.689904 -0.336274,0.348597 -0.542319,0.767209 -0.621848,1.263379 -0.02545,0.158776 -0.02755,0.516013 -0.0038,0.667264 0.08199,0.524725 0.288239,0.946815 0.638287,1.306347 0.395663,0.406381 0.902692,0.643996 1.468844,0.688358 0.103082,0.0081 0.32073,0.0034 0.437958,-0.0093 z M 43.32487,38.793458 c 0.525213,-0.0082 0.919907,-0.02062 1.060166,-0.03328 0.04834,-0.0043 0.09584,-0.01419 0.120893,-0.02501 0.154832,-0.06686 0.35188,-0.269376 0.45585,-0.468494 0.02322,-0.04447 0.05926,-0.131762 0.0801,-0.193988 0.126121,-0.37671 0.363402,-1.125845 0.572055,-1.806051 0.198359,-0.646643 0.220042,-0.717754 0.342438,-1.123021 0.451993,-1.496617 0.558993,-1.836069 0.725155,-2.300515 0.09448,-0.264081 0.150698,-0.427299 0.150698,-0.437501 0,-0.0037 -1.238885,-0.0067 -2.753077,-0.0067 -1.514191,0 -2.753075,0.0029 -2.753075,0.0063 0,0.0036 -0.10378,0.937861 -0.230604,2.07633 -0.289561,2.599146 -0.472857,4.249908 -0.475516,4.282464 l -0.002,0.02513 0.766839,0.0042 c 0.42176,0.0023 0.915805,0.005 1.097878,0.0062 0.18207,10e-4 0.56109,-0.0017 0.842265,-0.0062 z m -5.202303,-0.0287 c 0.0026,-0.0026 0.0152,-0.103698 0.0281,-0.224743 0.0129,-0.121052 0.03697,-0.346429 0.05352,-0.500845 0.01655,-0.154413 0.04878,-0.458007 0.07163,-0.67465 0.02286,-0.216641 0.04901,-0.461778 0.05813,-0.544747 0.0091,-0.08297 0.03192,-0.296052 0.05066,-0.473512 0.01873,-0.177463 0.05263,-0.496141 0.07529,-0.708175 0.02266,-0.212033 0.05839,-0.547682 0.07939,-0.745886 0.021,-0.198205 0.04559,-0.428256 0.05464,-0.511226 0.0091,-0.08297 0.03924,-0.36582 0.06709,-0.628556 0.131033,-1.236151 0.14127,-1.331401 0.147508,-1.372348 l 0.0048,-0.03142 H 35.88355 c -2.023447,0 -2.929808,0.0028 -2.929808,0.0087 0,0.0048 0.0073,0.0906 0.01657,0.190662 0.0091,0.100074 0.02996,0.334681 0.04631,0.521363 0.01635,0.186681 0.03896,0.443132 0.05022,0.569891 0.01138,0.126766 0.02994,0.337953 0.04148,0.469323 0.129873,1.478854 0.220112,2.453971 0.311022,3.360678 0.07251,0.723197 0.08701,0.846561 0.104151,0.885593 0.05835,0.132869 0.217161,0.286252 0.372977,0.36025 l 0.06547,0.03109 0.206163,0.0071 c 0.464667,0.01606 1.235634,0.0218 2.555708,0.01901 0.766775,-0.0016 1.396232,-0.005 1.398792,-0.0077 z m -7.071303,-0.07072 c 0,-0.0086 -0.0056,-0.07173 -0.01238,-0.140375 -0.0069,-0.06865 -0.03131,-0.328444 -0.0544,-0.577351 -0.02309,-0.248909 -0.04771,-0.511018 -0.05469,-0.582463 -0.007,-0.07144 -0.03147,-0.331668 -0.05443,-0.578271 -0.129241,-1.388667 -0.20146,-2.114791 -0.30634,-3.079927 -0.05381,-0.495207 -0.0965,-0.854577 -0.105486,-0.888146 -0.04647,-0.173496 -0.290952,-0.422963 -0.490428,-0.500419 l -0.06324,-0.02455 -0.273643,-0.0078 c -0.790092,-0.02235 -3.344888,-0.03214 -4.53184,-0.01736 l -0.411435,0.0051 0.229423,0.624366 c 0.179622,0.488833 0.653784,1.776279 1.13433,3.079924 0.03141,0.08518 0.177238,0.478473 0.301449,0.812933 0.316457,0.852108 0.584028,1.558998 0.605904,1.600723 0.03546,0.06765 0.168735,0.200885 0.236292,0.236253 0.02766,0.01447 0.06416,0.0289 0.08117,0.03205 0.05892,0.01092 0.915488,0.01804 2.338787,0.01943 1.389995,0.0013 1.431013,9.27e-4 1.431013,-0.01419 z m -0.881856,-8.838663 c 0.0012,-10e-4 -0.0017,-0.03726 -0.0065,-0.08055 -0.0048,-0.04329 -0.0389,-0.387951 -0.07568,-0.765922 -0.234337,-2.407981 -0.339637,-3.441535 -0.469616,-4.609411 -0.06689,-0.601035 -0.06222,-0.569899 -0.096,-0.638594 -0.05129,-0.104291 -0.193181,-0.23963 -0.322508,-0.307622 -0.108844,-0.05723 -0.05619,-0.05395 -1.039214,-0.06452 -0.909915,-0.0098 -6.641178,-0.01508 -6.650103,-0.0062 -0.0028,0.0028 0.129479,0.381568 0.293726,0.841936 0.164246,0.460365 0.339469,0.952055 0.389385,1.092641 0.611805,1.72317 1.43836,3.976133 1.512881,4.123707 0.07413,0.146788 0.341664,0.314192 0.603158,0.377407 0.07847,0.01897 0.257975,0.03094 0.603412,0.04026 0.203351,0.0056 5.250042,0.0023 5.257043,-0.0033 z m 16.82623,-0.0115 c 0.37748,-0.0069 0.368277,-0.0056 0.497747,-0.07858 0.07374,-0.04164 0.227948,-0.188504 0.263532,-0.250976 0.01224,-0.02157 0.05833,-0.147912 0.102316,-0.280755 0.370857,-1.120066 0.728309,-2.225364 1.315372,-4.067343 0.08595,-0.26965 0.223587,-0.701468 0.305883,-0.959595 0.176216,-0.552717 0.244645,-0.768745 0.246168,-0.777141 0.0011,-0.0059 -7.444962,-0.0095 -7.450872,-0.0036 -0.003,0.003 -0.02655,0.215984 -0.174528,1.581072 -0.04872,0.449417 -0.11847,1.092429 -0.15501,1.428917 -0.03654,0.336487 -0.10443,0.962527 -0.150861,1.391204 -0.04643,0.428675 -0.114453,1.05505 -0.151164,1.391943 -0.0367,0.336894 -0.06674,0.619331 -0.06674,0.627637 0,0.01453 0.09651,0.01488 2.541462,0.0092 1.397804,-0.0033 2.692315,-0.0086 2.876691,-0.01199 z m -7.878313,-0.09547 c 0.0027,-0.0196 0.02165,-0.197785 0.04224,-0.395991 0.05612,-0.540266 0.160343,-1.535908 0.188608,-1.801861 0.01372,-0.129069 0.04955,-0.470368 0.07966,-0.758457 0.03009,-0.288088 0.06591,-0.629394 0.07961,-0.758457 0.01369,-0.12907 0.04761,-0.451514 0.07536,-0.716554 0.02776,-0.265043 0.0825,-0.786723 0.121657,-1.159292 0.03917,-0.372566 0.07119,-0.684644 0.07119,-0.693505 0,-0.01587 -0.05799,-0.01612 -3.888668,-0.01612 -3.21203,0 -3.888667,0.002 -3.888667,0.01103 0,0.006 0.0115,0.122038 0.02538,0.257707 0.01396,0.135664 0.04778,0.465402 0.07517,0.732748 0.02739,0.267346 0.06301,0.614309 0.07912,0.771028 0.01613,0.156721 0.03898,0.379229 0.05075,0.494464 0.01185,0.115232 0.03445,0.33586 0.05033,0.490276 0.01589,0.154414 0.03854,0.375037 0.05033,0.490273 0.01185,0.115232 0.03442,0.335858 0.05029,0.490274 0.01587,0.154415 0.03849,0.375039 0.05031,0.490272 0.01185,0.115232 0.03441,0.33586 0.05029,0.490276 0.01587,0.154416 0.04203,0.40898 0.05813,0.565699 0.01611,0.156721 0.03891,0.379229 0.05065,0.494465 0.04576,0.448623 0.05523,0.536733 0.05877,0.546844 0.0029,0.0082 0.657309,0.01057 3.234191,0.01057 h 3.230527 z"
       id="path3"
       inkscape:label="cart" /><path
       id="rect5"
       style="display:none;fill:#2f4d2f;fill-opacity:1;stroke-width:1.05833;stroke-linecap:round;stroke-linejoin:round;paint-order:stroke markers fill"
       d="M 18.217473,14.932438 H 48.259097 V 53.074292 L 33.238285,42.300201 18.217473,53.074292 Z"
       sodipodi:nodetypes="cccccc"
       inkscape:label="tab" /><path
       style="display:none;fill:#ffffff;fill-opacity:1;stroke-width:1"
       d="M 31.608363,56.76031 C 9.9697019,54.272467 3.1774171,26.56065 21.271417,14.586642 34.242812,6.0026041 52.096013,12.82721 56.107386,27.903122 60.205902,43.306529 47.256581,58.559421 31.608363,56.76031 Z m 4.688629,-9.495449 c 1.344234,-0.373439 1.388534,-0.541445 1.418659,-5.380194 0.02593,-4.163465 0.02593,-4.163465 4.189386,-4.189386 5.636056,-0.03509 5.468828,0.08279 5.468828,-3.85493 0,-3.937718 0.167228,-3.81984 -5.468828,-3.854929 -4.163465,-0.02592 -4.163465,-0.02592 -4.189386,-4.189386 -0.03509,-5.636057 0.08279,-5.468829 -3.85493,-5.468829 -3.937718,0 -3.819841,-0.167228 -3.854929,5.468829 -0.02593,4.163466 -0.02593,4.163466 -4.189387,4.189386 -5.636056,0.03509 -5.468827,-0.08279 -5.468827,3.854929 0,3.93772 -0.167229,3.819841 5.468827,3.85493 4.163466,0.02593 4.163466,0.02593 4.189387,4.189386 0.03508,5.636073 -0.08825,5.459155 3.809882,5.465378 1.189245,0.0019 2.305838,-0.03643 2.481318,-0.08518 z"
       id="path5"
       inkscape:label="plus" /><path
       style="display:none;fill:#89a477;fill-opacity:1;stroke-width:0.999997"
       d="M 31.299358,59.581948 C 28.548262,59.301493 25.20666,58.386185 22.760278,57.242983 17.58058,54.822497 13.282211,50.610567 10.737137,45.461625 7.1515988,38.207716 7.1536619,29.730861 10.74273,22.492969 13.957824,16.009246 18.912524,11.632883 25.536294,9.4261805 32.843349,6.991842 40.790596,7.8745444 47.293512,11.84276 c 1.426728,0.870619 3.125317,2.127893 4.120135,3.049673 0.766717,0.710425 0.766717,0.710425 4.518476,-3.03987 3.751761,-3.7502964 3.751761,-3.7502964 3.751761,7.802926 0,11.553224 0,11.553224 -11.553288,11.553224 -11.553287,0 -11.553287,0 -7.431038,-4.123588 4.122249,-4.123586 4.122249,-4.123586 3.469582,-4.700428 -2.288536,-2.022656 -5.015444,-3.377916 -7.759521,-3.856442 -1.332616,-0.232389 -3.943557,-0.227331 -5.306117,0.01028 -3.181708,0.554843 -6.18615,2.21034 -8.380606,4.617854 -2.337346,2.564276 -3.71301,5.220349 -4.225297,8.158021 -0.232389,1.332617 -0.22733,3.943558 0.01028,5.306118 0.552382,3.167599 2.10702,6.000847 4.622537,8.424341 3.094956,2.981736 6.461775,4.359051 10.65562,4.359051 3.976573,0 7.132156,-1.242549 10.527788,-4.145442 0.459773,-0.393056 0.459773,-0.393056 3.992215,3.139386 4.044851,4.044851 3.842435,3.454025 1.811705,5.288131 -3.275189,2.95807 -7.711943,5.005468 -12.391726,5.718324 -1.585755,0.241553 -4.900814,0.333179 -6.426661,0.177628 z"
       id="path9"
       inkscape:label="refresh" /><path
       style="display:none;fill:#a4c5af;fill-opacity:1;stroke-width:1"
       d="M 31.454454,60.021953 C 27.497116,59.644633 23.538243,58.325545 20.175081,56.263686 16.793599,54.190598 13.536126,50.933123 11.463037,47.551643 6.7387559,39.845713 6.3291634,30.213967 10.381498,22.11877 c 2.13206,-4.259137 5.719149,-8.164426 9.793583,-10.662343 7.705929,-4.7242812 17.337675,-5.1338742 25.432872,-1.081539 4.259138,2.13206 8.164426,5.719148 10.662343,9.793583 4.72428,7.705929 5.133876,17.337675 1.081539,25.432872 -2.132059,4.259137 -5.719148,8.164425 -9.793582,10.662343 -4.769846,2.924256 -10.594369,4.283566 -16.103799,3.758267 z M 31.210561,43.996194 c 0.212873,-0.126868 4.265523,-4.076295 9.005889,-8.776506 6.13997,-6.087958 8.679203,-8.67118 8.828697,-8.981643 0.319086,-0.662661 0.368525,-1.195864 0.173184,-1.867812 -0.328321,-1.129385 -1.379612,-1.93738 -2.520746,-1.93738 -1.171992,0 -0.900744,-0.237715 -9.253352,8.109421 l -7.662318,7.657299 -3.678709,-3.366037 c -2.149816,-1.967093 -3.849977,-3.443841 -4.090803,-3.553243 -0.251025,-0.114036 -0.65565,-0.188087 -1.035234,-0.18946 -2.062991,-0.0075 -3.276144,2.275993 -2.116785,3.984315 0.336211,0.495407 9.136632,8.544361 9.73501,8.903736 0.801711,0.481496 1.824942,0.488268 2.615167,0.01731 z"
       id="path2"
       inkscape:label="check" /><path
       style="display:none;fill:#cae6d9;fill-opacity:1;stroke-width:1"
       d="m 32.711044,60.025348 c -0.859709,-0.05158 -1.106318,-0.06988 -1.52905,-0.113483 C 25.656972,59.342012 20.593479,57.100234 16.383903,53.36026 15.946764,52.97189 14.758153,51.782542 14.35955,51.334656 10.332335,46.80953 8.0318007,41.227601 7.7159364,35.214844 c -0.034102,-0.649139 -0.034102,-2.046134 0,-2.695274 0.2992215,-5.695939 2.4094436,-11.0793 6.0488036,-15.431024 0.700859,-0.838046 1.866838,-2.045751 2.63212,-2.726317 4.186302,-3.722876 9.301286,-5.9851092 14.785134,-6.539104 0.918295,-0.092769 1.198895,-0.1078033 2.293575,-0.1228907 1.151985,-0.015877 1.840363,0.0079 2.811896,0.09709 5.283197,0.4850572 10.28291,2.5643887 14.355506,5.9703137 1.088671,0.910458 2.317884,2.133828 3.243609,3.228192 1.414486,1.672164 2.683967,3.641016 3.62592,5.623494 2.000274,4.209856 2.827846,8.801955 2.43573,13.515542 -0.480822,5.779928 -2.947962,11.317809 -6.950808,15.602191 -3.92541,4.201499 -9.102164,6.991539 -14.735841,7.94196 -1.023928,0.172742 -1.973281,0.276816 -3.07555,0.337167 -0.425366,0.02328 -2.134086,0.02962 -2.474987,0.0091 z M 22.266857,48.829146 c 0.365857,-0.07093 0.711795,-0.215454 1.062559,-0.443918 0.139676,-0.09097 1.372428,-1.308019 5.358184,-5.289908 l 5.176773,-5.171748 5.16375,5.160374 c 5.369821,5.366309 5.284136,5.283795 5.707989,5.496752 0.818945,0.411462 1.79023,0.402804 2.60976,-0.02326 1.378933,-0.716899 1.929948,-2.424381 1.232228,-3.818426 -0.206847,-0.413282 -0.155729,-0.360218 -5.498503,-5.70799 l -5.158923,-5.163751 5.17261,-5.176772 c 5.485595,-5.49001 5.288287,-5.283884 5.515533,-5.762059 0.668958,-1.40763 0.06998,-3.108446 -1.332927,-3.784892 -0.827956,-0.399219 -1.74401,-0.393236 -2.553653,0.01668 -0.409749,0.207452 -0.352938,0.152676 -5.694145,5.490267 l -5.163782,5.16029 -5.176741,-5.171716 c -3.985731,-3.981864 -5.218477,-5.198901 -5.358153,-5.289876 -0.597833,-0.389387 -1.243477,-0.554973 -1.898997,-0.487029 -1.002435,0.1039 -1.866969,0.708977 -2.297338,1.607875 -0.449393,0.938637 -0.373884,1.957301 0.212167,2.862281 0.09119,0.140811 1.275175,1.340038 5.290089,5.358184 l 5.172609,5.176772 -5.160375,5.163751 c -5.366309,5.369821 -5.283794,5.284136 -5.496751,5.707989 -0.409557,0.81515 -0.400832,1.794028 0.02326,2.609759 0.276365,0.53158 0.690916,0.941732 1.233939,1.220845 0.339174,0.174334 0.663621,0.264951 1.120226,0.312872 0.150971,0.01584 0.518743,-0.01071 0.73861,-0.05334 z"
       id="path6"
       inkscape:label="x" /><path
       style="display:none;fill:#ffffff;fill-opacity:1;stroke-width:0.999999"
       d="m 20.495913,59.324675 c -1.480586,-0.401221 -2.65302,-1.484386 -3.116337,-2.879064 -0.171511,-0.51628 -0.398231,-2.952976 -1.40464,-15.096477 -0.660064,-7.964455 -1.200117,-14.565988 -1.200117,-14.670074 0,-0.185026 0.425983,-0.189248 19.093588,-0.189248 18.368648,0 19.093588,0.0069 19.093588,0.181192 0,0.09965 -0.538327,6.680377 -1.196284,14.623826 -0.985716,11.900461 -1.232247,14.559069 -1.400598,15.104126 -0.385871,1.249303 -1.35509,2.253595 -2.710312,2.808389 l -0.540842,0.221406 -13.045619,0.01934 c -11.035262,0.01636 -13.126801,-0.0026 -13.572427,-0.123417 z m 5.295036,-6.157941 c 0.607328,-0.432456 0.57999,0.119356 0.579821,-11.703738 -1.45e-4,-10.107933 -0.01173,-10.847271 -0.174942,-11.167354 -0.27774,-0.544682 -0.647654,-0.757362 -1.310924,-0.753709 -0.676599,0.0037 -1.155982,0.285649 -1.374333,0.808236 -0.206432,0.494063 -0.206432,21.775153 0,22.269215 0.141115,0.337734 0.549948,0.693667 0.911008,0.793129 0.361034,0.09946 1.060958,-0.02617 1.36937,-0.245779 z m 8.996979,0 c 0.607327,-0.432456 0.57999,0.119356 0.57982,-11.703738 -1.45e-4,-10.107933 -0.01173,-10.847271 -0.174941,-11.167354 -0.27774,-0.544682 -0.647654,-0.757362 -1.310924,-0.753709 -0.676599,0.0037 -1.155982,0.285649 -1.374333,0.808236 -0.206432,0.494063 -0.206432,21.775153 0,22.269215 0.141115,0.337734 0.549948,0.693667 0.911008,0.793129 0.361034,0.09946 1.060958,-0.02617 1.36937,-0.245779 z m 8.996979,0 c 0.607282,-0.432423 0.579975,0.117901 0.579975,-11.688631 0,-11.959274 0.03945,-11.233759 -0.637114,-11.716359 -0.436235,-0.31117 -1.288529,-0.31117 -1.724764,0 -0.676567,0.4826 -0.637114,-0.242915 -0.637114,11.716359 0,8.990347 0.02333,10.86531 0.138639,11.141281 0.141115,0.337734 0.549947,0.693667 0.911008,0.793129 0.361034,0.09946 1.060958,-0.02617 1.36937,-0.245779 z M 12.503087,23.193825 c -0.483776,-0.11494 -0.827519,-0.379051 -0.985527,-0.757218 -0.176077,-0.421412 -0.198532,-3.762341 -0.03068,-4.563979 0.252047,-1.203705 1.191998,-2.470645 2.223344,-2.996798 1.065093,-0.54337 0.868213,-0.52481 6.15422,-0.580171 l 4.93968,-0.05174 0.518104,-1.549479 c 0.637686,-1.907112 0.830211,-2.289786 1.511179,-3.0037107 0.61686,-0.6467125 1.249809,-1.0226916 2.090153,-1.2415733 0.856447,-0.2230764 9.021284,-0.22619 9.875227,-0.00378 0.822933,0.2143471 1.330266,0.5006186 1.972017,1.1127449 0.730532,0.6968091 1.002029,1.2135321 1.638044,3.1175771 l 0.523834,1.568207 4.93968,0.05409 c 3.270289,0.03581 5.047946,0.09213 5.260037,0.166663 1.601216,0.56267 2.787223,1.859815 3.115962,3.407952 0.06187,0.291359 0.112489,1.345547 0.112489,2.34264 0,1.626216 -0.02121,1.856704 -0.205942,2.238316 -0.14952,0.308868 -0.322493,0.48184 -0.63136,0.63136 l -0.425419,0.205942 -21.13633,-0.01023 c -11.624981,-0.0056 -21.281404,-0.04469 -21.458716,-0.08682 z m 27.238731,-9.024876 c -0.0253,-0.06873 -0.190488,-0.561218 -0.367087,-1.094424 -0.360258,-1.087733 -0.590764,-1.440956 -1.071391,-1.641775 -0.482486,-0.201595 -8.387379,-0.201595 -8.869865,0 -0.480627,0.200819 -0.711134,0.554042 -1.071392,1.641775 -0.176598,0.533206 -0.341787,1.025697 -0.367087,1.094424 -0.03647,0.09908 1.179995,0.124958 5.873411,0.124958 4.693417,0 5.909883,-0.02588 5.873411,-0.124958 z"
       id="path8"
       inkscape:label="trash" /><path
       style="display:none;fill:none;stroke:#ccba9b;stroke-width:4.23334;stroke-linecap:round;stroke-linejoin:round;stroke-dasharray:none;stroke-opacity:1"
       d="M 3.6665593,43.319027 33.866667,24.414265 64.066774,43.319027"
       id="path11"
       sodipodi:nodetypes="ccc"
       inkscape:label="up_arrow"
       inkscape:export-filename="up_arrow.png"
       inkscape:export-xdpi="96"
       inkscape:export-ydpi="96" /><path
       style="fill:#ffffff;fill-opacity:1;stroke-width:0.999998"
       d="m 13.86019,52.637362 c -0.708201,-0.225531 -1.671116,-1.227631 -1.892913,-1.969944 -0.275495,-0.922025 -0.22182,-1.548321 0.206328,-2.407501 0.4323,-0.867515 1.088674,-1.380071 2.110169,-1.64781 2.118011,-0.555144 4.271412,1.622647 3.712235,3.75428 -0.48643,1.854313 -2.306292,2.853599 -4.135819,2.270975 z m 10.874934,-0.02763 c -1.094082,-0.01435 -1.528896,-1.902672 -1.280763,-3.733567 0.14759,-1.089025 0.455388,-1.682127 1.069689,-2.061205 0.431686,-0.266388 1.082257,-0.279039 16.312721,-0.317215 11.476367,-0.02877 12.954842,0.0067 13.426467,0.128215 1.121505,0.288982 1.672564,1.284595 1.672564,3.021863 0,1.59236 -0.544612,2.692458 -1.49516,3.02017 -0.331803,0.114393 -2.100286,0.160869 -13.305692,0.156875 z M 13.635233,36.71628 c -3.195699,-1.495399 -1.895347,-6.214032 1.631843,-5.92153 2.873166,0.238266 3.825906,3.98251 1.439669,5.65786 -0.819191,0.575145 -2.159925,0.690238 -3.071512,0.26367 z m 11.040316,0.101723 c -0.163964,-0.08119 -0.424006,-0.293577 -0.577871,-0.47197 -0.518497,-0.601153 -0.659779,-1.130487 -0.659779,-2.471951 0,-1.661461 0.374527,-2.528585 1.275172,-2.952341 0.231942,-0.109129 5.339711,-0.15697 16.519097,-0.154723 15.519474,0.0031 13.114838,0.01455 13.583272,0.278732 0.301049,0.16978 0.598511,0.495296 0.775264,0.848381 0.250375,0.500153 0.286793,0.751575 0.286793,1.979951 0,1.228375 -0.03642,1.479797 -0.286793,1.97995 -0.176753,0.353085 -0.474215,0.678601 -0.775264,0.848381 -0.468722,0.264341 1.944194,0.275231 -13.620855,0.269344 -10.487197,-0.004 -16.326296,-0.05832 -16.519036,-0.153754 z M 14.06901,21.079029 c -0.897625,-0.285985 -1.501119,-0.799554 -1.91461,-1.629321 -0.627325,-1.258879 -0.410155,-2.573404 0.590455,-3.574015 1.008932,-1.008932 2.314669,-1.218015 3.601598,-0.576711 0.873888,0.435477 1.306956,0.963366 1.606295,1.957995 0.685769,2.278636 -1.616546,4.544383 -3.883738,3.822052 z m 11.083564,0.06701 c -1.081351,0.0011 -1.503738,-0.86533 -1.693722,-2.289062 -0.253799,-1.901966 0.301036,-3.397541 1.40114,-3.776814 0.66494,-0.229245 28.915711,-0.229245 29.58065,0 0.950548,0.327711 1.49516,1.427809 1.49516,3.020169 0,1.719667 -0.548254,2.724093 -1.646576,3.016594 z"
       id="path13"
       inkscape:label="list"
       sodipodi:nodetypes="sssssssssscsscssssssssscssssscsssssssssssscs" /></g><g
     inkscape:groupmode="layer"
     id="layer2"
     inkscape:label="icon"
     style="display:none"><rect
       style="fill:#ecdfbf;fill-opacity:1;stroke:none;stroke-width:1.05833;stroke-linecap:round;stroke-linejoin:round;paint-order:stroke markers fill"
       id="rect6"
       width="67.73333"
       height="67.73333"
       x="1.7801921e-06"
       y="1.7801921e-06"
       inkscape:label="bg" /><path
       style="font-size:45.1556px;line-height:1.25;font-family:'Jersey 10';-inkscape-font-specification:'Jersey 10, Normal';letter-spacing:0px;word-spacing:0px;fill:#9c4827;fill-opacity:1;stroke-width:0.264583"
       d="m 39.215032,37.255853 h -2.860021 v 5.72004 h 2.860021 z m -5.720041,11.440079 h -5.72004 v -2.86002 h -2.86002 v -5.72004 h 5.720041 v 2.860021 h 2.860019 v -5.72004 h -5.72004 v -2.86002 h -2.86002 V 22.955754 h 2.86002 v -2.860021 h 5.72004 v -2.860019 h 2.86002 v 2.860019 h 5.72004 v 2.860021 h 2.86002 v 5.720039 h -5.720039 v -2.86002 h -8.58006 v 5.72004 h 2.860019 v -5.72004 h 2.86002 v 5.72004 h 5.72004 v 2.86002 h 2.86002 v 11.440079 h -2.86002 v 2.86002 h -5.72004 v 2.860021 h -2.86002 z"
       id="path7"
       aria-label="$" /><path
       style="font-size:45.1556px;line-height:1.25;font-family:'Jersey 10';-inkscape-font-specification:'Jersey 10, Normal';letter-spacing:0px;word-spacing:0px;display:inline;fill:#2e3334;fill-opacity:1;stroke-width:0.264583"
       d="m 38.156698,36.726686 h -2.860021 v 5.72004 h 2.860021 z m -5.720041,11.440079 h -5.72004 v -2.86002 h -2.86002 v -5.72004 h 5.720041 v 2.860021 h 2.860019 v -5.72004 h -5.72004 v -2.86002 h -2.86002 V 22.426587 h 2.86002 v -2.860021 h 5.72004 v -2.860019 h 2.86002 v 2.860019 h 5.72004 v 2.860021 h 2.86002 v 5.720039 h -5.720039 v -2.86002 h -8.58006 v 5.72004 h 2.860019 v -5.72004 h 2.86002 v 5.72004 h 5.72004 v 2.86002 h 2.86002 v 11.440079 h -2.86002 v 2.86002 h -5.72004 v 2.860021 h -2.86002 z"
       id="text1"
       aria-label="$" /><path
       style="font-size:45.1556px;line-height:1.25;font-family:'Jersey 10';-inkscape-font-specification:'Jersey 10, Normal';letter-spacing:0px;word-spacing:0px;display:inline;fill:#6d8577;fill-opacity:1;stroke-width:0.264583"
       d="m 37.098364,36.197519 h -2.860021 v 5.72004 h 2.860021 z m -5.720041,11.440079 h -5.72004 v -2.86002 h -2.86002 v -5.72004 h 5.720041 v 2.860021 h 2.860019 v -5.72004 h -5.72004 v -2.86002 h -2.86002 V 21.89742 h 2.86002 v -2.860021 h 5.72004 V 16.17738 h 2.86002 v 2.860019 h 5.72004 v 2.860021 h 2.86002 v 5.720039 h -5.720039 v -2.86002 h -8.58006 v 5.72004 h 2.860019 v -5.72004 h 2.86002 v 5.72004 h 5.72004 v 2.86002 h 2.86002 v 11.440079 h -2.86002 v 2.86002 h -5.72004 v 2.860021 h -2.86002 z"
       id="path1"
       aria-label="$" /></g></svg>
